<svg style="position: absolute; width: 0; height: 0; overflow: hidden;" version="1.1" xmlns="http://www.w3.org/2000/svg"
     xmlns:xlink="http://www.w3.org/1999/xlink">
    <defs>
        <symbol id="dcf-icon-acceptance" viewBox="0 0 448 512">
            <path d="M400 32H48C21.49 32 0 53.49 0 80v352c0 26.51 21.49 48 48 48h352c26.51 0 48-21.49 48-48V80c0-26.51-21.49-48-48-48zm0 400H48V80h352v352zm-35.864-241.724L191.547 361.48c-4.705 4.667-12.303 4.637-16.97-.068l-90.781-91.516c-4.667-4.705-4.637-12.303.069-16.971l22.719-22.536c4.705-4.667 12.303-4.637 16.97.069l59.792 60.277 141.352-140.216c4.705-4.667 12.303-4.637 16.97.068l22.536 22.718c4.667 4.706 4.637 12.304-.068 16.971z"/>
        </symbol>
        <symbol id="dcf-icon-checkbox" viewBox="0 0 512 512">
            <path d="M128 116V76c0-8.837 7.163-16 16-16h352c8.837 0 16 7.163 16 16v40c0 8.837-7.163 16-16 16H144c-8.837 0-16-7.163-16-16zm16 176h352c8.837 0 16-7.163 16-16v-40c0-8.837-7.163-16-16-16H144c-8.837 0-16 7.163-16 16v40c0 8.837 7.163 16 16 16zm0 160h352c8.837 0 16-7.163 16-16v-40c0-8.837-7.163-16-16-16H144c-8.837 0-16 7.163-16 16v40c0 8.837 7.163 16 16 16zM16 144h64c8.837 0 16-7.163 16-16V64c0-8.837-7.163-16-16-16H16C7.163 48 0 55.163 0 64v64c0 8.837 7.163 16 16 16zm0 160h64c8.837 0 16-7.163 16-16v-64c0-8.837-7.163-16-16-16H16c-8.837 0-16 7.163-16 16v64c0 8.837 7.163 16 16 16zm0 160h64c8.837 0 16-7.163 16-16v-64c0-8.837-7.163-16-16-16H16c-8.837 0-16 7.163-16 16v64c0 8.837 7.163 16 16 16z"/>
        </symbol>
        <symbol id="dcf-icon-date" viewBox="0 0 448 512">
            <path d="M148 288h-40c-6.6 0-12-5.4-12-12v-40c0-6.6 5.4-12 12-12h40c6.6 0 12 5.4 12 12v40c0 6.6-5.4 12-12 12zm108-12v-40c0-6.6-5.4-12-12-12h-40c-6.6 0-12 5.4-12 12v40c0 6.6 5.4 12 12 12h40c6.6 0 12-5.4 12-12zm96 0v-40c0-6.6-5.4-12-12-12h-40c-6.6 0-12 5.4-12 12v40c0 6.6 5.4 12 12 12h40c6.6 0 12-5.4 12-12zm-96 96v-40c0-6.6-5.4-12-12-12h-40c-6.6 0-12 5.4-12 12v40c0 6.6 5.4 12 12 12h40c6.6 0 12-5.4 12-12zm-96 0v-40c0-6.6-5.4-12-12-12h-40c-6.6 0-12 5.4-12 12v40c0 6.6 5.4 12 12 12h40c6.6 0 12-5.4 12-12zm192 0v-40c0-6.6-5.4-12-12-12h-40c-6.6 0-12 5.4-12 12v40c0 6.6 5.4 12 12 12h40c6.6 0 12-5.4 12-12zm96-260v352c0 26.5-21.5 48-48 48H48c-26.5 0-48-21.5-48-48V112c0-26.5 21.5-48 48-48h48V12c0-6.6 5.4-12 12-12h40c6.6 0 12 5.4 12 12v52h128V12c0-6.6 5.4-12 12-12h40c6.6 0 12 5.4 12 12v52h48c26.5 0 48 21.5 48 48zm-48 346V160H48v298c0 3.3 2.7 6 6 6h340c3.3 0 6-2.7 6-6z"/>
        </symbol>
        <symbol id="dcf-icon-divider" viewBox="0 0 512 512">
            <path d="M377.941 169.941V216H134.059v-46.059c0-21.382-25.851-32.09-40.971-16.971L7.029 239.029c-9.373 9.373-9.373 24.568 0 33.941l86.059 86.059c15.119 15.119 40.971 4.411 40.971-16.971V296h243.882v46.059c0 21.382 25.851 32.09 40.971 16.971l86.059-86.059c9.373-9.373 9.373-24.568 0-33.941l-86.059-86.059c-15.119-15.12-40.971-4.412-40.971 16.97z"/>
        </symbol>
        <symbol id="dcf-icon-email" viewBox="0 0 512 512">
            <path d="M464 64H48C21.49 64 0 85.49 0 112v288c0 26.51 21.49 48 48 48h416c26.51 0 48-21.49 48-48V112c0-26.51-21.49-48-48-48zm0 48v40.805c-22.422 18.259-58.168 46.651-134.587 106.49-16.841 13.247-50.201 45.072-73.413 44.701-23.208.375-56.579-31.459-73.413-44.701C106.18 199.465 70.425 171.067 48 152.805V112h416zM48 400V214.398c22.914 18.251 55.409 43.862 104.938 82.646 21.857 17.205 60.134 55.186 103.062 54.955 42.717.231 80.509-37.199 103.053-54.947 49.528-38.783 82.032-64.401 104.947-82.653V400H48z"/>
        </symbol>
        <symbol id="dcf-icon-file" viewBox="0 0 512 512">
            <path d="M296 384h-80c-13.3 0-24-10.7-24-24V192h-87.7c-17.8 0-26.7-21.5-14.1-34.1L242.3 5.7c7.5-7.5 19.8-7.5 27.3 0l152.2 152.2c12.6 12.6 3.7 34.1-14.1 34.1H320v168c0 13.3-10.7 24-24 24zm216-8v112c0 13.3-10.7 24-24 24H24c-13.3 0-24-10.7-24-24V376c0-13.3 10.7-24 24-24h136v8c0 30.9 25.1 56 56 56h80c30.9 0 56-25.1 56-56v-8h136c13.3 0 24 10.7 24 24zm-124 88c0-11-9-20-20-20s-20 9-20 20 9 20 20 20 20-9 20-20zm64 0c0-11-9-20-20-20s-20 9-20 20 9 20 20 20 20-9 20-20z"/>
        </symbol>
        <symbol id="dcf-icon-hidden" viewBox="0 0 576 512">
            <path d="M272.702 359.139c-80.483-9.011-136.212-86.886-116.93-167.042l116.93 167.042zM288 392c-102.556 0-192.092-54.701-240-136 21.755-36.917 52.1-68.342 88.344-91.658l-27.541-39.343C67.001 152.234 31.921 188.741 6.646 231.631a47.999 47.999 0 0 0 0 48.739C63.004 376.006 168.14 440 288 440a332.89 332.89 0 0 0 39.648-2.367l-32.021-45.744A284.16 284.16 0 0 1 288 392zm281.354-111.631c-33.232 56.394-83.421 101.742-143.554 129.492l48.116 68.74c3.801 5.429 2.48 12.912-2.949 16.712L450.23 509.83c-5.429 3.801-12.912 2.48-16.712-2.949L102.084 33.399c-3.801-5.429-2.48-12.912 2.949-16.712L125.77 2.17c5.429-3.801 12.912-2.48 16.712 2.949l55.526 79.325C226.612 76.343 256.808 72 288 72c119.86 0 224.996 63.994 281.354 159.631a48.002 48.002 0 0 1 0 48.738zM528 256c-44.157-74.933-123.677-127.27-216.162-135.007C302.042 131.078 296 144.83 296 160c0 30.928 25.072 56 56 56s56-25.072 56-56l-.001-.042c30.632 57.277 16.739 130.26-36.928 171.719l26.695 38.135C452.626 346.551 498.308 306.386 528 256z"/>
        </symbol>
        <symbol id="dcf-icon-html" viewBox="0 0 640 512">
            <path d="M278.9 511.5l-61-17.7c-6.4-1.8-10-8.5-8.2-14.9L346.2 8.7c1.8-6.4 8.5-10 14.9-8.2l61 17.7c6.4 1.8 10 8.5 8.2 14.9L293.8 503.3c-1.9 6.4-8.5 10.1-14.9 8.2zm-114-112.2l43.5-46.4c4.6-4.9 4.3-12.7-.8-17.2L117 256l90.6-79.7c5.1-4.5 5.5-12.3.8-17.2l-43.5-46.4c-4.5-4.8-12.1-5.1-17-.5L3.8 247.2c-5.1 4.7-5.1 12.8 0 17.5l144.1 135.1c4.9 4.6 12.5 4.4 17-.5zm327.2.6l144.1-135.1c5.1-4.7 5.1-12.8 0-17.5L492.1 112.1c-4.8-4.5-12.4-4.3-17 .5L431.6 159c-4.6 4.9-4.3 12.7.8 17.2L523 256l-90.6 79.7c-5.1 4.5-5.5 12.3-.8 17.2l43.5 46.4c4.5 4.9 12.1 5.1 17 .6z"/>
        </symbol>
        <symbol id="dcf-icon-ip" viewBox="0 0 320 512">
            <path d="M302.189 329.126H196.105l55.831 135.993c3.889 9.428-.555 19.999-9.444 23.999l-49.165 21.427c-9.165 4-19.443-.571-23.332-9.714l-53.053-129.136-86.664 89.138C18.729 472.71 0 463.554 0 447.977V18.299C0 1.899 19.921-6.096 30.277 5.443l284.412 292.542c11.472 11.179 3.007 31.141-12.5 31.141z"/>
        </symbol>
        <symbol id="dcf-icon-number" viewBox="0 0 448 512">
            <path d="M308.811 113.787l-19.448-20.795c-4.522-4.836-4.274-12.421.556-16.95l43.443-40.741a11.999 11.999 0 0 1 8.209-3.247h31.591c6.627 0 12 5.373 12 12v127.07h25.66c6.627 0 12 5.373 12 12v28.93c0 6.627-5.373 12-12 12H301.649c-6.627 0-12-5.373-12-12v-28.93c0-6.627 5.373-12 12-12h25.414v-57.938c-7.254 6.58-14.211 4.921-18.252.601zm-30.57 238.569c0-32.653 23.865-67.356 68.094-67.356 38.253 0 79.424 28.861 79.424 92.228 0 51.276-32.237 105.772-91.983 105.772-17.836 0-30.546-3.557-38.548-6.781-5.79-2.333-8.789-8.746-6.922-14.703l9.237-29.48c2.035-6.496 9.049-9.983 15.467-7.716 13.029 4.602 27.878 5.275 38.103-4.138-38.742 5.072-72.872-25.36-72.872-67.826zm92.273 19.338c0-22.285-15.302-36.505-25.835-36.505-8.642 0-13.164 7.965-13.164 15.832 0 5.669 1.815 24.168 25.168 24.168 9.973 0 13.377-2.154 13.744-2.731.021-.046.087-.291.087-.764zM16.016 144H64v320c0 8.837 7.163 16 16 16h32c8.837 0 16-7.163 16-16V144h47.981c14.212 0 21.384-17.244 11.314-27.314l-79.981-80.002c-6.245-6.245-16.38-6.247-22.627 0L4.702 116.686C-5.347 126.736 1.775 144 16.016 144z"/>
        </symbol>
        <symbol id="dcf-icon-password" viewBox="0 0 512 512">
            <path d="M512 176.001C512 273.203 433.202 352 336 352c-11.22 0-22.19-1.062-32.827-3.069l-24.012 27.014A23.999 23.999 0 0 1 261.223 384H224v40c0 13.255-10.745 24-24 24h-40v40c0 13.255-10.745 24-24 24H24c-13.255 0-24-10.745-24-24v-78.059c0-6.365 2.529-12.47 7.029-16.971l161.802-161.802C163.108 213.814 160 195.271 160 176 160 78.798 238.797.001 335.999 0 433.488-.001 512 78.511 512 176.001zM336 128c0 26.51 21.49 48 48 48s48-21.49 48-48-21.49-48-48-48-48 21.49-48 48z"/>
        </symbol>
        <symbol id="dcf-icon-radio" viewBox="0 0 512 512">
            <path d="M256 56c110.532 0 200 89.451 200 200 0 110.532-89.451 200-200 200-110.532 0-200-89.451-200-200 0-110.532 89.451-200 200-200m0-48C119.033 8 8 119.033 8 256s111.033 248 248 248 248-111.033 248-248S392.967 8 256 8zm0 168c-44.183 0-80 35.817-80 80s35.817 80 80 80 80-35.817 80-80-35.817-80-80-80z"/>
        </symbol>
        <symbol id="dcf-icon-recaptcha" viewBox="0 0 512 512">
            <path d="M370.72 133.28C339.458 104.008 298.888 87.962 255.848 88c-77.458.068-144.328 53.178-162.791 126.85-1.344 5.363-6.122 9.15-11.651 9.15H24.103c-7.498 0-13.194-6.807-11.807-14.176C33.933 94.924 134.813 8 256 8c66.448 0 126.791 26.136 171.315 68.685L463.03 40.97C478.149 25.851 504 36.559 504 57.941V192c0 13.255-10.745 24-24 24H345.941c-21.382 0-32.09-25.851-16.971-40.971l41.75-41.749zM32 296h134.059c21.382 0 32.09 25.851 16.971 40.971l-41.75 41.75c31.262 29.273 71.835 45.319 114.876 45.28 77.418-.07 144.315-53.144 162.787-126.849 1.344-5.363 6.122-9.15 11.651-9.15h57.304c7.498 0 13.194 6.807 11.807 14.176C478.067 417.076 377.187 504 256 504c-66.448 0-126.791-26.136-171.315-68.685L48.97 471.03C33.851 486.149 8 475.441 8 454.059V320c0-13.255 10.745-24 24-24z"/>
        </symbol>
        <symbol id="dcf-icon-text" viewBox="0 0 448 512">
            <path d="M16 32h416c8.837 0 16 7.163 16 16v96c0 8.837-7.163 16-16 16h-35.496c-8.837 0-16-7.163-16-16V96H261.743v128H296c8.837 0 16 7.163 16 16v32c0 8.837-7.163 16-16 16H152c-8.837 0-16-7.163-16-16v-32c0-8.837 7.163-16 16-16h34.257V96H67.496v48c0 8.837-7.163 16-16 16H16c-8.837 0-16-7.163-16-16V48c0-8.837 7.163-16 16-16zm427.315 340.682l-80.001-79.995C353.991 283.365 336 288.362 336 304v48H112v-47.99c0-14.307-17.307-21.319-27.314-11.313L4.685 372.692c-6.245 6.245-6.247 16.379 0 22.626l80.001 79.995C94.009 484.635 112 479.638 112 464v-48h224v47.99c0 14.307 17.307 21.319 27.314 11.313l80.001-79.995c6.245-6.245 6.248-16.379 0-22.626z"/>
        </symbol>
        <symbol id="dcf-icon-textarea" viewBox="0 0 448 512">
            <path d="M408 32H177.531C88.948 32 16.045 103.335 16 191.918 15.956 280.321 87.607 352 176 352v104c0 13.255 10.745 24 24 24h32c13.255 0 24-10.745 24-24V112h32v344c0 13.255 10.745 24 24 24h32c13.255 0 24-10.745 24-24V112h40c13.255 0 24-10.745 24-24V56c0-13.255-10.745-24-24-24z"/>
        </symbol>
        <symbol id="dcf-icon-time" viewBox="0 0 512 512">
            <path d="M256 8C119 8 8 119 8 256s111 248 248 248 248-111 248-248S393 8 256 8zm0 448c-110.5 0-200-89.5-200-200S145.5 56 256 56s200 89.5 200 200-89.5 200-200 200zm61.8-104.4l-84.9-61.7c-3.1-2.3-4.9-5.9-4.9-9.7V116c0-6.6 5.4-12 12-12h32c6.6 0 12 5.4 12 12v141.7l66.8 48.6c5.4 3.9 6.5 11.4 2.6 16.8L334.6 349c-3.9 5.3-11.4 6.5-16.8 2.6z"/>
        </symbol>
        <symbol id="dcf-icon-url" viewBox="0 0 512 512">
            <path d="M326.612 185.391c59.747 59.809 58.927 155.698.36 214.59-.11.12-.24.25-.36.37l-67.2 67.2c-59.27 59.27-155.699 59.262-214.96 0-59.27-59.26-59.27-155.7 0-214.96l37.106-37.106c9.84-9.84 26.786-3.3 27.294 10.606.648 17.722 3.826 35.527 9.69 52.721 1.986 5.822.567 12.262-3.783 16.612l-13.087 13.087c-28.026 28.026-28.905 73.66-1.155 101.96 28.024 28.579 74.086 28.749 102.325.51l67.2-67.19c28.191-28.191 28.073-73.757 0-101.83-3.701-3.694-7.429-6.564-10.341-8.569a16.037 16.037 0 0 1-6.947-12.606c-.396-10.567 3.348-21.456 11.698-29.806l21.054-21.055c5.521-5.521 14.182-6.199 20.584-1.731a152.482 152.482 0 0 1 20.522 17.197zM467.547 44.449c-59.261-59.262-155.69-59.27-214.96 0l-67.2 67.2c-.12.12-.25.25-.36.37-58.566 58.892-59.387 154.781.36 214.59a152.454 152.454 0 0 0 20.521 17.196c6.402 4.468 15.064 3.789 20.584-1.731l21.054-21.055c8.35-8.35 12.094-19.239 11.698-29.806a16.037 16.037 0 0 0-6.947-12.606c-2.912-2.005-6.64-4.875-10.341-8.569-28.073-28.073-28.191-73.639 0-101.83l67.2-67.19c28.239-28.239 74.3-28.069 102.325.51 27.75 28.3 26.872 73.934-1.155 101.96l-13.087 13.087c-4.35 4.35-5.769 10.79-3.783 16.612 5.864 17.194 9.042 34.999 9.69 52.721.509 13.906 17.454 20.446 27.294 10.606l37.106-37.106c59.271-59.259 59.271-155.699.001-214.959z"/>
        </symbol>
        <symbol id="dcf-icon-select" viewBox="0 0 320 512">
            <path d="M143 352.3L7 216.3c-9.4-9.4-9.4-24.6 0-33.9l22.6-22.6c9.4-9.4 24.6-9.4 33.9 0l96.4 96.4 96.4-96.4c9.4-9.4 24.6-9.4 33.9 0l22.6 22.6c9.4 9.4 9.4 24.6 0 33.9l-136 136c-9.2 9.4-24.4 9.4-33.8 0z"/>
        </symbol>
    </defs>
</svg>